<svg width="1366" height="768" viewBox="0 0 1366 768" fill="none" xmlns="http://www.w3.org/2000/svg">
<path fill-rule="evenodd" clip-rule="evenodd" d="M853.678 133H435.208L0.000176648 431.077V555.406L853.678 133Z" fill="url(#paint0_linear)"/>
<path fill-rule="evenodd" clip-rule="evenodd" d="M1081.19 768L425.549 767.891L0.00047875 525.179V423.943L1081.19 768Z" fill="url(#paint1_linear)"/>
<path d="M719.906 618.168C747.579 618.168 770.013 600.777 770.013 579.323C770.013 557.87 747.579 540.478 719.906 540.478C692.233 540.478 669.799 557.87 669.799 579.323C669.799 600.777 692.233 618.168 719.906 618.168Z" stroke="url(#paint2_linear)" stroke-width="17"/>
<path opacity="0.558" d="M1158.21 693.281L1135.07 675.343C1133.87 674.415 1131.93 674.415 1130.73 675.343L1107.59 693.281C1106.39 694.21 1106.39 695.716 1107.59 696.645L1130.73 714.583C1131.93 715.512 1133.87 715.512 1135.07 714.583L1158.21 696.645C1159.4 695.716 1159.4 694.21 1158.21 693.281Z" fill="url(#paint3_linear)"/>
<path opacity="0.503" d="M1346.83 213.446L1310.68 185.418C1309.48 184.489 1307.54 184.489 1306.34 185.418L1270.18 213.446C1268.99 214.375 1268.99 215.881 1270.18 216.81L1306.34 244.838C1307.54 245.767 1309.48 245.767 1310.68 244.838L1346.83 216.81C1348.03 215.881 1348.03 214.375 1346.83 213.446Z" fill="url(#paint4_linear)"/>
<path opacity="0.558" d="M976.712 181.759L957.911 167.184C956.713 166.255 954.771 166.255 953.573 167.184L934.773 181.759C933.575 182.688 933.575 184.193 934.773 185.122L953.573 199.697C954.771 200.626 956.713 200.626 957.911 199.697L976.712 185.122C977.91 184.193 977.91 182.688 976.712 181.759Z" fill="url(#paint5_linear)"/>
<path opacity="0.558" d="M740.493 279.269L721.693 264.694C720.495 263.765 718.552 263.765 717.354 264.694L698.554 279.269C697.356 280.197 697.356 281.703 698.554 282.632L717.354 297.207C718.552 298.135 720.495 298.135 721.693 297.207L740.493 282.632C741.691 281.703 741.691 280.197 740.493 279.269Z" fill="url(#paint6_linear)"/>
<path opacity="0.387" d="M1276.54 612.868L1265.69 604.46C1265.29 604.15 1264.64 604.15 1264.24 604.46L1253.4 612.868C1253 613.178 1253 613.68 1253.4 613.99L1264.24 622.398C1264.64 622.708 1265.29 622.708 1265.69 622.398L1276.54 613.99C1276.94 613.68 1276.94 613.178 1276.54 612.868Z" fill="url(#paint7_linear)"/>
<path opacity="0.211" fill-rule="evenodd" clip-rule="evenodd" d="M98.6572 717.585L110.588 708.336C111.547 707.593 112.847 707.175 114.203 707.175C115.56 707.175 116.86 707.593 117.819 708.336C118.778 709.079 119.316 710.087 119.316 711.139C119.316 712.19 118.778 713.198 117.819 713.942L105.888 723.191L117.819 732.44C118.778 733.184 119.316 734.192 119.316 735.243C119.316 736.294 118.778 737.303 117.819 738.046C116.86 738.789 115.56 739.207 114.204 739.207C112.847 739.207 111.547 738.789 110.588 738.046L98.6572 728.797L86.7264 738.046C85.7675 738.789 84.467 739.207 83.111 739.207C81.7549 739.207 80.4544 738.789 79.4956 738.046C78.5367 737.303 77.998 736.294 77.998 735.243C77.998 734.192 78.5367 733.184 79.4956 732.44L91.4264 723.191L79.4956 713.942C78.5367 713.198 77.998 712.19 77.998 711.139C77.998 710.087 78.5367 709.079 79.4956 708.336C80.4544 707.593 81.7549 707.175 83.111 707.175C84.467 707.175 85.7675 707.593 86.7264 708.336L98.6572 717.585Z" fill="url(#paint8_linear)"/>
<defs>
<linearGradient id="paint0_linear" x1="1239.97" y1="-239.042" x2="826.614" y2="859.372" gradientUnits="userSpaceOnUse">
<stop stop-color="#FF52C1"/>
<stop offset="0.0409" stop-color="#F952C5"/>
<stop offset="1" stop-color="#9952FF" stop-opacity="0"/>
</linearGradient>
<linearGradient id="paint1_linear" x1="1773.8" y1="1187.43" x2="1516.2" y2="77.5834" gradientUnits="userSpaceOnUse">
<stop stop-color="#FF52C1"/>
<stop offset="0.0409" stop-color="#F952C5"/>
<stop offset="1" stop-color="#9952FF" stop-opacity="0"/>
</linearGradient>
<linearGradient id="paint2_linear" x1="770.013" y1="627.004" x2="682.175" y2="475.925" gradientUnits="userSpaceOnUse">
<stop stop-color="#FF52C1"/>
<stop offset="1" stop-color="#9952FF"/>
</linearGradient>
<linearGradient id="paint3_linear" x1="1137.48" y1="679.346" x2="1134.77" y2="735.831" gradientUnits="userSpaceOnUse">
<stop stop-color="#FF52C1"/>
<stop offset="1" stop-color="#9952FF"/>
</linearGradient>
<linearGradient id="paint4_linear" x1="1315.26" y1="192.114" x2="1311.26" y2="275.355" gradientUnits="userSpaceOnUse">
<stop stop-color="#FF52C1"/>
<stop offset="1" stop-color="#9952FF"/>
</linearGradient>
<linearGradient id="paint5_linear" x1="959.601" y1="170.29" x2="957.316" y2="217.856" gradientUnits="userSpaceOnUse">
<stop stop-color="#FF52C1"/>
<stop offset="1" stop-color="#9952FF"/>
</linearGradient>
<linearGradient id="paint6_linear" x1="723.382" y1="267.799" x2="721.097" y2="315.366" gradientUnits="userSpaceOnUse">
<stop stop-color="#FF52C1"/>
<stop offset="1" stop-color="#9952FF"/>
</linearGradient>
<linearGradient id="paint7_linear" x1="1267.02" y1="606.443" x2="1265.8" y2="631.712" gradientUnits="userSpaceOnUse">
<stop stop-color="#FF52C1"/>
<stop offset="1" stop-color="#9952FF"/>
</linearGradient>
<linearGradient id="paint8_linear" x1="106.924" y1="690.861" x2="98.6481" y2="752.857" gradientUnits="userSpaceOnUse">
<stop stop-color="#FF52C1"/>
<stop offset="1" stop-color="#9952FF"/>
</linearGradient>
</defs>
</svg>
